<svg width="12" height="12" viewBox="0 0 12 12" fill="none" xmlns="http://www.w3.org/2000/svg">
<path fill-rule="evenodd" clip-rule="evenodd" d="M4.84269 10.3708L5 11V12H7V11L7.15731 10.3708C7.30813 9.7675 8.0603 9.5603 8.5 10L10 11.5L11.5 10L10 8.5C9.5603 8.0603 9.7675 7.30813 10.3708 7.15731L11 7H12V5H11L10.3708 4.84269C9.7675 4.69187 9.5603 3.9397 10 3.5L11.5 2L10 0.5L8.5 2C8.0603 2.4397 7.30813 2.2325 7.15731 1.62924L7 1V0H5V1L4.84269 1.62924C4.69187 2.2325 3.9406 2.4406 3.50089 2.00089L3 1.5L2 0.5L0.5 2L1.5 3L2.00089 3.50089C2.4406 3.9406 2.2325 4.69187 1.62924 4.84269L1 5H0V7H1L1.62924 7.15731C2.2325 7.30813 2.4397 8.0603 2 8.5L0.5 10L2 11.5L3.5 10C3.9397 9.5603 4.69187 9.7675 4.84269 10.3708ZM6 8C7.10457 8 8 7.10457 8 6C8 4.89543 7.10457 4 6 4C4.89543 4 4 4.89543 4 6C4 7.10457 4.89543 8 6 8Z" fill="#808080"/>
</svg>
