<svg width="16" height="16" viewBox="0 0 16 16" fill="none" xmlns="http://www.w3.org/2000/svg">
<path fill-rule="evenodd" clip-rule="evenodd" d="M9 2H7V4.12602C6.65374 4.21514 6.32562 4.34946 6.02232 4.52232L4.5 3L3 4.5L4.52232 6.02232C4.34946 6.32562 4.21514 6.65374 4.12602 7H2V9H4.12602C4.21514 9.34626 4.34946 9.67438 4.52232 9.97768L3 11.5L4.5 13L6.02232 11.4777C6.32562 11.6505 6.65374 11.7849 7 11.874V14H9V11.874C9.34626 11.7849 9.67438 11.6505 9.97768 11.4777L11.5 13L13 11.5L11.4777 9.97768C11.6505 9.67438 11.7849 9.34626 11.874 9H14V7H11.874C11.7849 6.65373 11.6505 6.32561 11.4777 6.0223L13 4.49997L11.5 2.99997L9.97768 4.52232C9.67438 4.34946 9.34626 4.21514 9 4.12602V2ZM8 10C9.10457 10 10 9.10457 10 8C10 6.89543 9.10457 6 8 6C6.89543 6 6 6.89543 6 8C6 9.10457 6.89543 10 8 10Z" fill="#808080"/>
</svg>
