<svg width="12" height="12" viewBox="0 0 12 12" fill="none" xmlns="http://www.w3.org/2000/svg">
<path fill-rule="evenodd" clip-rule="evenodd" d="M4.72416 10.3449L5 12H7L7.27584 10.3449C7.37627 9.74239 8.0877 9.47016 8.56471 9.85177L10 11L11 10L9.85177 8.56471C9.47016 8.0877 9.74239 7.37627 10.3449 7.27584L12 7V5L10.3449 4.72416C9.74239 4.62373 9.47016 3.9123 9.85177 3.43529L11 2L10 1L8.56471 2.14823C8.0877 2.52984 7.37627 2.25761 7.27584 1.65505L7 0H5L4.72416 1.65505C4.62373 2.25761 3.9123 2.52984 3.43529 2.14823L2 1L1 2L2.14823 3.43529C2.52984 3.9123 2.25761 4.62373 1.65505 4.72416L0 5V7L1.65505 7.27584C2.25761 7.37627 2.52984 8.0877 2.14823 8.56471L1 10L2 11L3.43529 9.85177C3.9123 9.47016 4.62373 9.74239 4.72416 10.3449ZM6 8C7.10457 8 8 7.10457 8 6C8 4.89543 7.10457 4 6 4C4.89543 4 4 4.89543 4 6C4 7.10457 4.89543 8 6 8Z" fill="#808080"/>
</svg>
