<svg width="16" height="16" viewBox="0 0 16 16" fill="none" xmlns="http://www.w3.org/2000/svg">
<g clip-path="url(#clip0)">
<path d="M4.79025 6.6898C4.31656 6.21611 3.96653 6.24066 3.32803 6.38409C2.97729 6.46288 1.87232 6.95605 1.64613 7.18224L8.7172 14.2533C8.94339 14.0271 9.43642 12.922 9.5152 12.5713C9.65864 11.9328 9.68332 11.5829 9.20964 11.1092L4.79025 6.6898Z" fill="#5989B3"/>
<path d="M10.6617 3.46988L12.4295 5.23767L9.23495 9.31623L6.58328 6.66455L10.6617 3.46988Z" fill="#5989B3"/>
<path d="M11.1541 0.325768L15.5736 4.74523L14.6645 5.65437L10.245 1.23491L11.1541 0.325768Z" fill="#5989B3"/>
<path d="M3.85377 11.2081L4.73766 12.092L0.635946 15.2634L3.85377 11.2081Z" fill="#5989B3"/>
</g>
<defs>
<clipPath id="clip0">
<rect width="1366" height="768" fill="white" transform="translate(-1342 -68)"/>
</clipPath>
</defs>
</svg>
